<svg width="404" height="567" viewBox="0 0 404 567" xmlns="http://www.w3.org/2000/svg" lang="zh-Hans" xml:lang="zh-Hans"><rect x="2" y="2" stroke-width="4" rx="6" width="400" height="563" stroke="rgba(84,174,255,0.4)" fill="#ffffff"/><g font-weight="600" font-size="110pt" font-family="Verdana,Geneva,DejaVu Sans,sans-serif" text-rendering="geometricPrecision"><g transform="translate(0, 21)" fill="#24292f"><g transform="translate(15, 0)"><g transform="scale(0.095)"><text x="0" y="132" textLength="232" lengthAdjust="spacingAndGlyphs">仓库</text><text x="2126" y="132" textLength="527" lengthAdjust="spacingAndGlyphs">非 Fork</text><text x="3189" y="132" textLength="232" lengthAdjust="spacingAndGlyphs">全部</text></g></g><g transform="translate(15, 21)"><path fill="#0969da" fill-rule="evenodd" d="M2 2.5A2.5 2.5 0 014.5 0h8.75a.75.75 0 01.75.75v12.5a.75.75 0 01-.75.75h-2.5a.75.75 0 110-1.5h1.75v-2h-8a1 1 0 00-.714 1.7.75.75 0 01-1.072 1.05A2.495 2.495 0 012 11.5v-9zm10.5-1V9h-8c-.356 0-.694.074-1 .208V2.5a1 1 0 011-1h8zM5 12.25v3.25a.25.25 0 00.4.2l1.45-1.087a.25.25 0 01.3 0L8.6 15.7a.25.25 0 00.4-.2v-3.25a.25.25 0 00-.25-.25h-3.5a.25.25 0 00-.25.25z"/><g transform="scale(0.095)"><text lengthAdjust="spacingAndGlyphs" textLength="465" x="263" y="132">我的仓库</text><text lengthAdjust="spacingAndGlyphs" textLength="210" x="2126" y="132">14</text><text lengthAdjust="spacingAndGlyphs" textLength="210" x="3189" y="132">42</text></g></g><g transform="translate(15, 42)"><path fill="#0969da" fill-rule="evenodd" d="M8 .25a.75.75 0 01.673.418l1.882 3.815 4.21.612a.75.75 0 01.416 1.279l-3.046 2.97.719 4.192a.75.75 0 01-1.088.791L8 12.347l-3.766 1.98a.75.75 0 01-1.088-.79l.72-4.194L.818 6.374a.75.75 0 01.416-1.28l4.21-.611L7.327.668A.75.75 0 018 .25zm0 2.445L6.615 5.5a.75.75 0 01-.564.41l-3.097.45 2.24 2.184a.75.75 0 01.216.664l-.528 3.084 2.769-1.456a.75.75 0 01.698 0l2.77 1.456-.53-3.084a.75.75 0 01.216-.664l2.24-2.183-3.096-.45a.75.75 0 01-.564-.41L8 2.694v.001z"/><g transform="scale(0.095)"><text lengthAdjust="spacingAndGlyphs" textLength="624" x="263" y="132">获得 Star</text><text lengthAdjust="spacingAndGlyphs" textLength="420" x="2126" y="132">1238</text><text lengthAdjust="spacingAndGlyphs" textLength="420" x="3189" y="132">1240</text></g></g><g transform="translate(15, 63)"><path fill="#0969da" fill-rule="evenodd" d="M5 3.25a.75.75 0 11-1.5 0 .75.75 0 011.5 0zm0 2.122a2.25 2.25 0 10-1.5 0v.878A2.25 2.25 0 005.75 8.5h1.5v2.128a2.251 2.251 0 101.5 0V8.5h1.5a2.25 2.25 0 002.25-2.25v-.878a2.25 2.25 0 10-1.5 0v.878a.75.75 0 01-.75.75h-4.5A.75.75 0 015 6.25v-.878zm3.75 7.378a.75.75 0 11-1.5 0 .75.75 0 011.5 0zm3-8.75a.75.75 0 100-1.5.75.75 0 000 1.5z"/><g transform="scale(0.095)"><text lengthAdjust="spacingAndGlyphs" textLength="527" x="263" y="132">被 Fork</text><text lengthAdjust="spacingAndGlyphs" textLength="210" x="2126" y="132">85</text><text lengthAdjust="spacingAndGlyphs" textLength="210" x="3189" y="132">85</text></g></g><g transform="translate(15, 84)"><path fill="#0969da" fill-rule="evenodd" d="M1.679 7.932c.412-.621 1.242-1.75 2.366-2.717C5.175 4.242 6.527 3.5 8 3.5c1.473 0 2.824.742 3.955 1.715 1.124.967 1.954 2.096 2.366 2.717a.119.119 0 010 .136c-.412.621-1.242 1.75-2.366 2.717C10.825 11.758 9.473 12.5 8 12.5c-1.473 0-2.824-.742-3.955-1.715C2.92 9.818 2.09 8.69 1.679 8.068a.119.119 0 010-.136zM8 2c-1.981 0-3.67.992-4.933 2.078C1.797 5.169.88 6.423.43 7.1a1.619 1.619 0 000 1.798c.45.678 1.367 1.932 2.637 3.024C4.329 13.008 6.019 14 8 14c1.981 0 3.67-.992 4.933-2.078 1.27-1.091 2.187-2.345 2.637-3.023a1.619 1.619 0 000-1.798c-.45-.678-1.367-1.932-2.637-3.023C11.671 2.992 9.981 2 8 2zm0 8a2 2 0 100-4 2 2 0 000 4z"/><g transform="scale(0.095)"><text lengthAdjust="spacingAndGlyphs" textLength="349" x="263" y="132">被关注</text><text lengthAdjust="spacingAndGlyphs" textLength="210" x="2126" y="132">14</text><text lengthAdjust="spacingAndGlyphs" textLength="210" x="3189" y="132">14</text></g></g><g transform="translate(15, 105)"><path fill="#0969da" fill-rule="evenodd" d="M1.75 2.5a.25.25 0 00-.25.25v1.5c0 .138.112.25.25.25h12.5a.25.25 0 00.25-.25v-1.5a.25.25 0 00-.25-.25H1.75zM0 2.75C0 1.784.784 1 1.75 1h12.5c.966 0 1.75.784 1.75 1.75v1.5A1.75 1.75 0 0114.25 6H1.75A1.75 1.75 0 010 4.25v-1.5zM1.75 7a.75.75 0 01.75.75v5.5c0 .138.112.25.25.25h10.5a.25.25 0 00.25-.25v-5.5a.75.75 0 111.5 0v5.5A1.75 1.75 0 0113.25 15H2.75A1.75 1.75 0 011 13.25v-5.5A.75.75 0 011.75 7zm4.5 1a.75.75 0 000 1.5h3.5a.75.75 0 100-1.5h-3.5z"/><g transform="scale(0.095)"><text lengthAdjust="spacingAndGlyphs" textLength="349" x="263" y="132">已归档</text><text lengthAdjust="spacingAndGlyphs" textLength="105" x="2126" y="132">3</text><text lengthAdjust="spacingAndGlyphs" textLength="105" x="3189" y="132">3</text></g></g></g><g transform="translate(0, 168)" fill="#24292f"><g transform="translate(15, 0)"><g transform="scale(0.095)"><text x="0" y="132" textLength="232" lengthAdjust="spacingAndGlyphs">贡献</text><text x="2126" y="132" textLength="465" lengthAdjust="spacingAndGlyphs">过去一年</text><text x="3189" y="132" textLength="232" lengthAdjust="spacingAndGlyphs">总计</text></g></g><g transform="translate(15, 21)"><path fill="#0969da" fill-rule="evenodd" d="M10.5 7.75a2.5 2.5 0 11-5 0 2.5 2.5 0 015 0zm1.43.75a4.002 4.002 0 01-7.86 0H.75a.75.75 0 110-1.5h3.32a4.001 4.001 0 017.86 0h3.32a.75.75 0 110 1.5h-3.32z"/><g transform="scale(0.095)"><text lengthAdjust="spacingAndGlyphs" textLength="232" x="263" y="132">提交</text><text lengthAdjust="spacingAndGlyphs" textLength="315" x="2126" y="132">314</text><text lengthAdjust="spacingAndGlyphs" textLength="315" x="3189" y="132">609</text></g></g><g transform="translate(15, 42)"><path fill="#0969da" d="M8 9.5a1.5 1.5 0 100-3 1.5 1.5 0 000 3z"/><path fill="#0969da" fill-rule="evenodd" d="M8 0a8 8 0 100 16A8 8 0 008 0zM1.5 8a6.5 6.5 0 1113 0 6.5 6.5 0 01-13 0z"/><g transform="scale(0.095)"><text lengthAdjust="spacingAndGlyphs" textLength="512" x="263" y="132">Issues</text><text lengthAdjust="spacingAndGlyphs" textLength="210" x="2126" y="132">17</text><text lengthAdjust="spacingAndGlyphs" textLength="210" x="3189" y="132">50</text></g></g><g transform="translate(15, 63)"><path fill="#0969da" fill-rule="evenodd" d="M7.177 3.073L9.573.677A.25.25 0 0110 .854v4.792a.25.25 0 01-.427.177L7.177 3.427a.25.25 0 010-.354zM3.75 2.5a.75.75 0 100 1.5.75.75 0 000-1.5zm-2.25.75a2.25 2.25 0 113 2.122v5.256a2.251 2.251 0 11-1.5 0V5.372A2.25 2.25 0 011.5 3.25zM11 2.5h-1V4h1a1 1 0 011 1v5.628a2.251 2.251 0 101.5 0V5A2.5 2.5 0 0011 2.5zm1 10.25a.75.75 0 111.5 0 .75.75 0 01-1.5 0zM3.75 12a.75.75 0 100 1.5.75.75 0 000-1.5z"/><g transform="scale(0.095)"><text lengthAdjust="spacingAndGlyphs" textLength="213" x="263" y="132">PR</text><text lengthAdjust="spacingAndGlyphs" textLength="210" x="2126" y="132">13</text><text lengthAdjust="spacingAndGlyphs" textLength="210" x="3189" y="132">66</text></g></g><g transform="translate(15, 84)"><path fill="#0969da" fill-rule="evenodd" d="M1.5 2.75a.25.25 0 01.25-.25h8.5a.25.25 0 01.25.25v5.5a.25.25 0 01-.25.25h-3.5a.75.75 0 00-.53.22L3.5 11.44V9.25a.75.75 0 00-.75-.75h-1a.25.25 0 01-.25-.25v-5.5zM1.75 1A1.75 1.75 0 000 2.75v5.5C0 9.216.784 10 1.75 10H2v1.543a1.457 1.457 0 002.487 1.03L7.061 10h3.189A1.75 1.75 0 0012 8.25v-5.5A1.75 1.75 0 0010.25 1h-8.5zM14.5 4.75a.25.25 0 00-.25-.25h-.5a.75.75 0 110-1.5h.5c.966 0 1.75.784 1.75 1.75v5.5A1.75 1.75 0 0114.25 12H14v1.543a1.457 1.457 0 01-2.487 1.03L9.22 12.28a.75.75 0 111.06-1.06l2.22 2.22v-2.19a.75.75 0 01.75-.75h1a.25.25 0 00.25-.25v-5.5z"/><g transform="scale(0.095)"><text lengthAdjust="spacingAndGlyphs" textLength="498" x="263" y="132">PR 审核</text><text lengthAdjust="spacingAndGlyphs" textLength="105" x="2126" y="132">0</text><text lengthAdjust="spacingAndGlyphs" textLength="105" x="3189" y="132">1</text></g></g><g transform="translate(15, 105)"><path fill="#0969da" fill-rule="evenodd" d="M1 2.5A2.5 2.5 0 013.5 0h8.75a.75.75 0 01.75.75v3.5a.75.75 0 01-1.5 0V1.5h-8a1 1 0 00-1 1v6.708A2.492 2.492 0 013.5 9h3.25a.75.75 0 010 1.5H3.5a1 1 0 100 2h5.75a.75.75 0 010 1.5H3.5A2.5 2.5 0 011 11.5v-9zm13.23 7.79a.75.75 0 001.06-1.06l-2.505-2.505a.75.75 0 00-1.06 0L9.22 9.229a.75.75 0 001.06 1.061l1.225-1.224v6.184a.75.75 0 001.5 0V9.066l1.224 1.224z"/><g transform="scale(0.095)"><text lengthAdjust="spacingAndGlyphs" textLength="349" x="263" y="132">贡献至</text><text lengthAdjust="spacingAndGlyphs" textLength="210" x="2126" y="132">18</text></g></g></g><g transform="translate(0, 315)" fill="#24292f"><g transform="translate(15, 0)"><g transform="scale(0.095)"><text x="0" y="132" textLength="930" lengthAdjust="spacingAndGlyphs">公共仓库语言分布</text></g></g><g transform="translate(217, 21)"><circle cx="81" cy="81" r="81" fill="#000000"/></g><g transform="translate(218, 22)"><path fill-rule="evenodd" fill="#b07219" d="M 0.0,80.00000000000001 A 80 80 0 1 1 143.0364463982212 129.25856702629693 L 80,80 Z"/><path fill-rule="evenodd" fill="#00B4AB" d="M 143.0364463982212,129.25856702629693 A 80 80 0 0 1 94.63175690019101 158.6505670037649 L 80,80 Z"/><path fill-rule="evenodd" fill="#f34b7d" d="M 94.63175690019101,158.6505670037649 A 80 80 0 0 1 41.76038952328503 150.26899878743905 L 80,80 Z"/><path fill-rule="evenodd" fill="#A97BFF" d="M 41.76038952328503,150.26899878743905 A 80 80 0 0 1 20.467311505998047 133.4402376554982 L 80,80 Z"/><path fill-rule="evenodd" fill="#DA3434" d="M 20.467311505998047,133.4402376554982 A 80 80 0 0 1 9.857021077961065 118.470280840441 L 80,80 Z"/><path fill-rule="evenodd" fill="#3572A5" d="M 9.857021077961065,118.470280840441 A 80 80 0 0 1 3.9160231334823123 104.7230350923021 L 80,80 Z"/><path fill-rule="evenodd" fill="#438eff" d="M 3.9160231334823123,104.7230350923021 A 80 80 0 0 1 2.5487292218583093 100.03248998130226 L 80,80 Z"/><path fill-rule="evenodd" fill="#22a079" d="M 2.5487292218583093,100.03248998130226 A 80 80 0 0 1 1.6293709022346405 96.06376340776015 L 80,80 Z"/><path fill-rule="evenodd" fill="#e34c26" d="M 1.6293709022346405,96.06376340776015 A 80 80 0 0 1 1.0124725701945607 92.687415439156 L 80,80 Z"/><path fill-rule="evenodd" fill="#F05138" d="M 1.0124725701945607,92.687415439156 A 80 80 0 0 1 0.5425960147421023 89.30166393305642 L 80,80 Z"/><path fill-rule="evenodd" fill="#959da5" d="M 0.5425960147421023,89.30166393305642 A 80 80 0 0 1 0.0 80.00000000000003 L 80,80 Z"/></g><g transform="translate(15, 21)"><rect x="0.5" y="0.5" rx="2" width="15" height="15" fill="#b07219" stroke-width="1" stroke="#000000"/><text transform="scale(0.095)" x="263" y="132" textLength="1038" lengthAdjust="spacingAndGlyphs">Java 60.56%</text></g><g transform="translate(15, 42)"><rect x="0.5" y="0.5" rx="2" width="15" height="15" fill="#00B4AB" stroke-width="1" stroke="#000000"/><text transform="scale(0.095)" x="263" y="132" textLength="1042" lengthAdjust="spacingAndGlyphs">Dart 11.52%</text></g><g transform="translate(15, 63)"><rect x="0.5" y="0.5" rx="2" width="15" height="15" fill="#f34b7d" stroke-width="1" stroke="#000000"/><text transform="scale(0.095)" x="263" y="132" textLength="1074" lengthAdjust="spacingAndGlyphs">C++ 10.86%</text></g><g transform="translate(15, 84)"><rect x="0.5" y="0.5" rx="2" width="15" height="15" fill="#A97BFF" stroke-width="1" stroke="#000000"/><text transform="scale(0.095)" x="263" y="132" textLength="1048" lengthAdjust="spacingAndGlyphs">Kotlin 5.43%</text></g><g transform="translate(15, 105)"><rect x="0.5" y="0.5" rx="2" width="15" height="15" fill="#DA3434" stroke-width="1" stroke="#000000"/><text transform="scale(0.095)" x="263" y="132" textLength="1134" lengthAdjust="spacingAndGlyphs">CMake 3.66%</text></g><g transform="translate(15, 126)"><rect x="0.5" y="0.5" rx="2" width="15" height="15" fill="#3572A5" stroke-width="1" stroke="#000000"/><text transform="scale(0.095)" x="263" y="132" textLength="1149" lengthAdjust="spacingAndGlyphs">Python 2.98%</text></g><g transform="translate(15, 147)"><rect x="0.5" y="0.5" rx="2" width="15" height="15" fill="#438eff" stroke-width="1" stroke="#000000"/><text transform="scale(0.095)" x="263" y="132" textLength="1538" lengthAdjust="spacingAndGlyphs">Objective-C 0.97%</text></g><g transform="translate(15, 168)"><rect x="0.5" y="0.5" rx="2" width="15" height="15" fill="#22a079" stroke-width="1" stroke="#000000"/><text transform="scale(0.095)" x="263" y="132" textLength="1149" lengthAdjust="spacingAndGlyphs">Xmake 0.81%</text></g><g transform="translate(15, 189)"><rect x="0.5" y="0.5" rx="2" width="15" height="15" fill="#e34c26" stroke-width="1" stroke="#000000"/><text transform="scale(0.095)" x="263" y="132" textLength="1036" lengthAdjust="spacingAndGlyphs">HTML 0.68%</text><rect x="202.5" y="0.5" rx="2" width="15" height="15" fill="#F05138" stroke-width="1" stroke="#000000"/><text transform="scale(0.095)" x="2389" y="132" textLength="987" lengthAdjust="spacingAndGlyphs">Swift 0.68%</text></g><g transform="translate(15, 210)"><rect x="0.5" y="0.5" rx="2" width="15" height="15" fill="#959da5" stroke-width="1" stroke="#000000"/><text transform="scale(0.095)" x="263" y="132" textLength="1047" lengthAdjust="spacingAndGlyphs">Other 1.85%</text></g></g></g></svg>